<?xml version="1.0" encoding="utf-8"?>
<!-- Generator: Adobe Illustrator 19.2.1, SVG Export Plug-In . SVG Version: 6.00 Build 0)  -->
<svg version="1.1" id="layer" xmlns="http://www.w3.org/2000/svg" xmlns:xlink="http://www.w3.org/1999/xlink" x="0px" y="0px"
	 viewBox="0 0 652 652" style="enable-background:new 0 0 652 652;" xml:space="preserve">
<style type="text/css">
	.st0{fill:#3E34EB;}
	.st1{fill:#FFFFFF;}
</style>
<rect x="22" y="154.3" class="st0" width="600" height="333.3"/>
<path class="st1" d="M171,325.8c0.7-25.1-3.4-39.8-8.8-47.5c0-0.1-0.1-0.2-0.1-0.2c-3-4.3-6.4-6.4-9.4-7l-0.3,0c-0.2,0-0.5,0-0.7,0
	c-8.6,0.6-21.4,27.1-21.4,27.1c-7.1-0.7-14.2-0.7-21.3,0c0,0-13.7-28.6-22.4-27.1c-8.6,1.6-19.2,15.3-18.1,54.8c0,0-5.9,5.4-5.7,8.8
	c0.2,2.7,4.1,4.9,4.1,4.9s-3.7,4.1-2.3,9.3c2.4,8.3,16.1,14.2,23.8,16.8c21.5,7.2,42.9,7.3,64.4,0.2c8.2-2.7,17.5-7.9,21.4-15.9
	c0.1-0.1,0.1-0.3,0.2-0.4c0-0.1,0.1-0.2,0.1-0.2l0.1-0.2c0-0.1,0-0.1,0-0.2c0,0,0-0.1,0-0.1c0.1-0.4,0.2-0.8,0.2-1.2
	c0.1-0.9,0.1-1.8,0-2.6c0-0.2-0.1-0.5-0.1-0.7c-0.1-0.3-0.2-0.6-0.3-1c-0.5-1.4-1.2-2.7-2.1-3.8h0c0.2-0.1,3.8-1.3,4.6-4.5
	c0.1-0.4,0.2-0.7,0.2-1.1v-0.1C177.3,329.9,171,325.8,171,325.8L171,325.8z M100.8,318.7c3.4,0.7,5.4,5.1,4.5,9.8
	c-1,4.7-4.5,8-7.9,7.3s-5.4-5.1-4.5-9.8C93.8,321.3,97.4,318,100.8,318.7z M134.8,328.5c-1-4.7,1-9.1,4.5-9.8c3.4-0.7,7,2.6,7.9,7.3
	c1,4.7-1,9.1-4.5,9.8C139.3,336.5,135.7,333.2,134.8,328.5L134.8,328.5z M120,332.9c6.2,0,11.2,3.2,11.2,7.2c0,2.5-3.5,6.3-7.6,7.4
	c-2.3,0.6-4.7,0.5-6.9-0.2c-4.4-1.1-7.9-4.7-7.9-7.2C108.8,336.1,113.8,332.9,120,332.9L120,332.9z M137.9,344.8
	c-0.1-0.2-0.3-0.4-0.5-0.5c-0.2-0.1-0.5-0.1-0.7-0.1c-0.2,0-0.5,0.1-0.7,0.3c-0.2,0.2-0.3,0.4-0.4,0.6l0,0.1v0.1
	c-0.3,1.5-0.7,3-1.3,4.4c-0.5,1.1-1.3,2-2.3,2.7c-1.2,0.7-2.6,1.2-4,1.4c-0.4,0-0.8,0.1-1.2,0.2l0,0c-0.4,0.1-0.8,0.1-1.2,0.2
	c-0.9,0-1.8,0.1-2.6,0.3h-0.1l-0.1,0c-0.3,0-0.5,0.2-0.7,0.4c-0.2,0.2-0.3,0.4-0.3,0.7c0,0.3,0,0.5,0.2,0.7c0.1,0.2,0.3,0.4,0.6,0.5
	l0,0c0.9,0.4,1.8,0.7,2.7,0.9l0,0c1,0.2,1.9,0.4,2.9,0.5l0,0c2.2,0.1,4.4-0.3,6.3-1.4l0,0c1.1-0.6,2-1.4,2.7-2.4
	c0.7-1,1.2-2.1,1.5-3.2l0,0c0.1-0.5,0.2-1.1,0.2-1.6l0,0c0-0.5,0-1.1-0.1-1.6C138.8,346.8,138.4,345.8,137.9,344.8z"/>
<path class="st1" d="M232.3,284.8c3.7,2,6.5,4.8,8.5,8.4c2,3.6,3,7.8,3,12.5v23.6c0,5.8-1.6,10.8-4.9,14.8c-3.3,4-7.7,6.6-13.3,7.7
	c-0.3,0.1-0.4,0.3-0.4,0.6v8.3c0,0.3-0.1,0.6-0.3,0.8c-0.2,0.2-0.5,0.3-0.8,0.3h-9.1c-0.3,0-0.6-0.1-0.8-0.3
	c-0.2-0.2-0.3-0.5-0.3-0.8v-8.3c0-0.3-0.1-0.5-0.4-0.6c-5.6-1.1-10-3.7-13.3-7.7c-3.3-4-4.9-8.9-4.9-14.8v-23.6c0-4.7,1-8.9,3-12.5
	c2-3.6,4.8-6.4,8.5-8.4c3.7-2,7.9-3,12.7-3C224.4,281.8,228.6,282.8,232.3,284.8z M232.4,305.1c0-4-1.2-7.2-3.5-9.7
	c-2.4-2.5-5.5-3.7-9.3-3.7c-3.8,0-6.9,1.2-9.3,3.7c-2.4,2.5-3.5,5.7-3.5,9.7v24c0,4,1.2,7.2,3.5,9.7c2.4,2.5,5.5,3.7,9.3,3.7
	c3.8,0,6.9-1.2,9.3-3.7c2.4-2.5,3.5-5.7,3.5-9.7V305.1z M294.1,350.6l-3.3-10.5c-0.1-0.3-0.3-0.4-0.5-0.4h-26.1
	c-0.2,0-0.4,0.1-0.5,0.4l-3.3,10.5c-0.2,0.7-0.6,1-1.3,1h-9.9c-0.4,0-0.7-0.1-0.9-0.3c-0.2-0.2-0.2-0.6-0.1-1l21.5-66.6
	c0.2-0.7,0.6-1,1.3-1h12.3c0.7,0,1.1,0.3,1.3,1l21.5,66.6c0.1,0.1,0.1,0.3,0.1,0.5c0,0.6-0.4,0.9-1.1,0.9h-9.9
	C294.7,351.6,294.3,351.3,294.1,350.6z M267.2,330.7h20.1c0.4,0,0.5-0.2,0.4-0.6l-10.1-33.2c-0.1-0.3-0.2-0.4-0.3-0.4
	c-0.1,0-0.2,0.1-0.3,0.4l-10.1,33.2C266.7,330.5,266.9,330.7,267.2,330.7z M400.7,282.6h9.2c0.9,0,1.3,0.4,1.1,1.3l-17,66.7
	c-0.2,0.7-0.7,1-1.4,1h-9.2c-0.7,0-1.2-0.3-1.4-1l-11.5-47.4c-0.1-0.2-0.2-0.3-0.3-0.3c-0.1,0-0.2,0.1-0.3,0.3l-11,47.4
	c-0.2,0.7-0.6,1-1.3,1h-8.7c-0.7,0-1.2-0.3-1.4-1l-17.9-66.7l-0.1-0.4c0-0.6,0.4-0.9,1.1-0.9h9.7c0.7,0,1.2,0.3,1.4,1l11.2,45
	c0.1,0.2,0.2,0.3,0.3,0.3c0.1,0,0.2-0.1,0.3-0.3l10.7-45c0.2-0.7,0.7-1,1.4-1h9.4c0.7,0,1.2,0.3,1.4,1l11.5,45.2
	c0.1,0.2,0.2,0.3,0.3,0.3c0.1,0,0.2-0.1,0.3-0.3l10.9-45.2C399.5,283,400,282.6,400.7,282.6z M429.1,349.6c-3.8-2-6.7-4.8-8.8-8.5
	c-2.1-3.7-3.1-7.9-3.1-12.7v-22.5c0-4.7,1-8.9,3.1-12.6c2.1-3.6,5-6.5,8.8-8.5c3.8-2,8.2-3,13.2-3c5,0,9.4,1,13.2,3
	c3.8,2,6.7,4.8,8.8,8.5c2.1,3.6,3.2,7.8,3.2,12.6v22.5c0,4.8-1.1,9-3.2,12.7c-2.1,3.7-5,6.5-8.8,8.5c-3.8,2-8.2,3-13.2,3
	C437.3,352.6,432.9,351.6,429.1,349.6z M452.2,338.9c2.5-2.6,3.7-5.9,3.7-10.1v-23c0-4.3-1.2-7.7-3.7-10.2c-2.5-2.6-5.8-3.8-10-3.8
	c-4.1,0-7.4,1.3-9.9,3.8c-2.5,2.6-3.7,6-3.7,10.2v23c0,4.2,1.2,7.6,3.7,10.1c2.5,2.6,5.8,3.8,9.9,3.8
	C446.4,342.7,449.7,341.4,452.2,338.9z M479.4,283c0.2-0.2,0.5-0.3,0.8-0.3h9.1c0.3,0,0.6,0.1,0.8,0.3c0.2,0.2,0.3,0.5,0.3,0.8v57.4
	c0,0.3,0.2,0.5,0.5,0.5h33c0.3,0,0.6,0.1,0.8,0.3c0.2,0.2,0.3,0.5,0.3,0.8v7.5c0,0.3-0.1,0.6-0.3,0.8c-0.2,0.2-0.5,0.3-0.8,0.3
	h-43.7c-0.3,0-0.6-0.1-0.8-0.3c-0.2-0.2-0.3-0.5-0.3-0.8v-66.6C479.1,283.5,479.2,283.2,479.4,283z M580.5,292.1
	c-0.2,0.2-0.5,0.3-0.8,0.3h-33.5c-0.3,0-0.5,0.2-0.5,0.5v18.4c0,0.3,0.2,0.5,0.5,0.5h22.6c0.3,0,0.6,0.1,0.8,0.3
	c0.2,0.2,0.3,0.5,0.3,0.8v7.5c0,0.3-0.1,0.6-0.3,0.8c-0.2,0.2-0.5,0.3-0.8,0.3h-22.6c-0.3,0-0.5,0.2-0.5,0.5v28.2
	c0,0.3-0.1,0.6-0.3,0.8c-0.2,0.2-0.5,0.3-0.8,0.3h-9.1c-0.3,0-0.6-0.1-0.8-0.3c-0.2-0.2-0.3-0.5-0.3-0.8v-66.6
	c0-0.3,0.1-0.6,0.3-0.8c0.2-0.2,0.5-0.3,0.8-0.3h44.2c0.3,0,0.6,0.1,0.8,0.3c0.2,0.2,0.3,0.5,0.3,0.8v7.5
	C580.9,291.6,580.8,291.9,580.5,292.1z"/>
</svg>
